<svg xmlns="http://www.w3.org/2000/svg" viewBox="0 0 512 512">
  <defs>
    <radialGradient id="bg" cx="50%" cy="45%" r="75%">
      <stop offset="0%" style="stop-color:#0f1f3d"/>
      <stop offset="60%" style="stop-color:#060e1f"/>
      <stop offset="100%" style="stop-color:#020509"/>
    </radialGradient>
    <radialGradient id="aura" cx="50%" cy="44%" r="35%">
      <stop offset="0%" style="stop-color:#00e5ff;stop-opacity:0.2"/>
      <stop offset="50%" style="stop-color:#7b2fff;stop-opacity:0.06"/>
      <stop offset="100%" style="stop-color:#000;stop-opacity:0"/>
    </radialGradient>
    <linearGradient id="body" x1="0%" y1="0%" x2="100%" y2="100%">
      <stop offset="0%" style="stop-color:#00e5ff"/>
      <stop offset="40%" style="stop-color:#6c3fff"/>
      <stop offset="100%" style="stop-color:#ff2d78"/>
    </linearGradient>
    <linearGradient id="legR" x1="0%" y1="0%" x2="100%" y2="0%">
      <stop offset="0%" style="stop-color:#00e5ff"/>
      <stop offset="60%" style="stop-color:#00e5ff;stop-opacity:0.5"/>
      <stop offset="100%" style="stop-color:#00e5ff;stop-opacity:0.05"/>
    </linearGradient>
    <linearGradient id="legL" x1="100%" y1="0%" x2="0%" y2="0%">
      <stop offset="0%" style="stop-color:#00e5ff"/>
      <stop offset="60%" style="stop-color:#00e5ff;stop-opacity:0.5"/>
      <stop offset="100%" style="stop-color:#00e5ff;stop-opacity:0.05"/>
    </linearGradient>
    <linearGradient id="titleG" x1="0%" y1="0%" x2="100%" y2="0%">
      <stop offset="0%" style="stop-color:#00e5ff"/>
      <stop offset="50%" style="stop-color:#ffffff"/>
      <stop offset="100%" style="stop-color:#ff2d78"/>
    </linearGradient>
    <filter id="g3"><feGaussianBlur stdDeviation="3" result="b"/><feComposite in="SourceGraphic" in2="b" operator="over"/></filter>
    <filter id="g6"><feGaussianBlur stdDeviation="6" result="b"/><feComposite in="SourceGraphic" in2="b" operator="over"/></filter>
    <filter id="g10"><feGaussianBlur stdDeviation="10" result="b"/><feComposite in="SourceGraphic" in2="b" operator="over"/></filter>
    <filter id="blur25"><feGaussianBlur stdDeviation="25"/></filter>
  </defs>

  <rect width="512" height="512" fill="url(#bg)" rx="64"/>

  <ellipse cx="256" cy="220" rx="180" ry="140" fill="url(#aura)" filter="url(#blur25)"/>

  <g transform="translate(256,220)" stroke="#00e5ff" fill="none">
    <polygon points="0,-70 61,-35 61,35 0,70 -61,35 -61,-35" stroke-width="1" opacity="0.18"/>
    <polygon points="0,-110 95,-55 95,55 0,110 -95,55 -95,-55" stroke-width="0.7" opacity="0.12"/>
    <polygon points="0,-150 130,-75 130,75 0,150 -130,75 -130,-75" stroke-width="0.5" opacity="0.08"/>
    <polygon points="0,-190 165,-95 165,95 0,190 -165,95 -165,-95" stroke-width="0.4" opacity="0.05"/>
  </g>

  <g transform="translate(256,220)" opacity="0.08" stroke="#00e5ff" stroke-width="0.5">
    <line x1="0" y1="0" x2="0" y2="-200"/><line x1="0" y1="0" x2="173" y2="-100"/>
    <line x1="0" y1="0" x2="173" y2="100"/><line x1="0" y1="0" x2="0" y2="200"/>
    <line x1="0" y1="0" x2="-173" y2="100"/><line x1="0" y1="0" x2="-173" y2="-100"/>
    <line x1="0" y1="0" x2="100" y2="-173"/><line x1="0" y1="0" x2="100" y2="173"/>
    <line x1="0" y1="0" x2="-100" y2="-173"/><line x1="0" y1="0" x2="-100" y2="173"/>
    <line x1="0" y1="0" x2="200" y2="0"/><line x1="0" y1="0" x2="-200" y2="0"/>
  </g>

  <circle cx="256" cy="220" r="45" fill="#00e5ff" opacity="0.07" filter="url(#blur25)"/>
  <circle cx="256" cy="220" r="22" fill="#7b2fff" opacity="0.1" filter="url(#blur25)"/>

  <g filter="url(#g3)" stroke-linecap="round" fill="none">
    <path d="M276,206 Q312,185 360,155 Q385,142 418,132" stroke="url(#legR)" stroke-width="2.6" opacity="0.9"/>
    <path d="M280,218 Q325,210 375,202 Q405,198 442,204" stroke="url(#legR)" stroke-width="2.2" opacity="0.8"/>
    <path d="M280,230 Q325,238 375,252 Q405,260 442,270" stroke="url(#legR)" stroke-width="2.2" opacity="0.8"/>
    <path d="M276,240 Q312,260 360,295 Q385,312 418,325" stroke="url(#legR)" stroke-width="2.6" opacity="0.7"/>
    <path d="M236,206 Q200,185 152,155 Q127,142 94,132" stroke="url(#legL)" stroke-width="2.6" opacity="0.9"/>
    <path d="M232,218 Q187,210 137,202 Q107,198 70,204" stroke="url(#legL)" stroke-width="2.2" opacity="0.8"/>
    <path d="M232,230 Q187,238 137,252 Q107,260 70,270" stroke="url(#legL)" stroke-width="2.2" opacity="0.8"/>
    <path d="M236,240 Q200,260 152,295 Q127,312 94,325" stroke="url(#legL)" stroke-width="2.6" opacity="0.7"/>
  </g>

  <g filter="url(#g6)">
    <circle cx="418" cy="132" r="8" fill="#00e5ff" opacity="0.12"/><circle cx="418" cy="132" r="4" fill="#00e5ff"/>
    <circle cx="442" cy="204" r="8" fill="#7b2fff" opacity="0.12"/><circle cx="442" cy="204" r="4" fill="#7b2fff"/>
    <circle cx="442" cy="270" r="8" fill="#ff2d78" opacity="0.12"/><circle cx="442" cy="270" r="4" fill="#ff2d78"/>
    <circle cx="418" cy="325" r="8" fill="#00ff88" opacity="0.12"/><circle cx="418" cy="325" r="4" fill="#00ff88"/>
    <circle cx="94" cy="132" r="8" fill="#ffbe0b" opacity="0.12"/><circle cx="94" cy="132" r="4" fill="#ffbe0b"/>
    <circle cx="70" cy="204" r="8" fill="#00e5ff" opacity="0.12"/><circle cx="70" cy="204" r="4" fill="#00e5ff"/>
    <circle cx="70" cy="270" r="8" fill="#7b2fff" opacity="0.12"/><circle cx="70" cy="270" r="4" fill="#7b2fff"/>
    <circle cx="94" cy="325" r="8" fill="#ff2d78" opacity="0.12"/><circle cx="94" cy="325" r="4" fill="#ff2d78"/>
  </g>

  <g transform="translate(256,220)" filter="url(#g10)">
    <ellipse cx="0" cy="20" rx="27" ry="35" fill="url(#body)" opacity="0.92"/>
    <ellipse cx="0" cy="-16" rx="22" ry="20" fill="url(#body)" opacity="0.96"/>
    <line x1="-10" y1="-3" x2="10" y2="-3" stroke="#fff" stroke-width="0.6" opacity="0.4"/>
    <line x1="0" y1="-14" x2="0" y2="16" stroke="#fff" stroke-width="0.6" opacity="0.4"/>
    <circle cx="-10" cy="-3" r="2" fill="#00e5ff" opacity="0.7"/>
    <circle cx="10" cy="-3" r="2" fill="#00e5ff" opacity="0.7"/>
    <circle cx="0" cy="16" r="2" fill="#ff2d78" opacity="0.7"/>
    <circle cx="0" cy="-14" r="2" fill="#7b2fff" opacity="0.7"/>
    <circle cx="-8" cy="-24" r="4.5" fill="#00e5ff" opacity="0.25"/>
    <circle cx="8" cy="-24" r="4.5" fill="#00e5ff" opacity="0.25"/>
    <circle cx="-8" cy="-24" r="3" fill="#00e5ff"/>
    <circle cx="8" cy="-24" r="3" fill="#00e5ff"/>
    <circle cx="-8" cy="-24" r="1.5" fill="#fff"/>
    <circle cx="8" cy="-24" r="1.5" fill="#fff"/>
  </g>

  <text x="256" y="408" text-anchor="middle" font-family="'Segoe UI',Arial,sans-serif" font-size="40" font-weight="bold" fill="url(#titleG)" filter="url(#g6)">Mond Spider</text>
  <text x="256" y="436" text-anchor="middle" font-family="'Segoe UI',Arial,sans-serif" font-size="14" fill="#00e5ff" letter-spacing="5" opacity="0.85" font-weight="600">AGENT  v6.1</text>

  <line x1="160" y1="450" x2="352" y2="450" stroke="url(#body)" stroke-width="0.6" opacity="0.2"/>

  <g transform="translate(256,472)" opacity="0.5">
    <rect x="-72" y="-12" width="144" height="22" rx="11" fill="#00e5ff" opacity="0.08"/>
    <rect x="-72" y="-12" width="144" height="22" rx="11" fill="none" stroke="#00e5ff" stroke-width="0.5" opacity="0.2"/>
    <text x="0" y="4" text-anchor="middle" font-family="'Segoe UI',Arial,sans-serif" font-size="10" fill="#00e5ff" letter-spacing="1">WeChat: 3314844</text>
  </g>

  <g opacity="0.35">
    <circle cx="55" cy="45" r="1" fill="#00e5ff"/><circle cx="450" cy="60" r="1.2" fill="#7b2fff"/>
    <circle cx="30" cy="400" r="0.8" fill="#ff2d78"/><circle cx="480" cy="420" r="1" fill="#00ff88"/>
    <circle cx="120" cy="480" r="0.7" fill="#ffbe0b"/><circle cx="390" cy="490" r="0.9" fill="#00e5ff"/>
    <circle cx="470" cy="100" r="0.6" fill="#ff2d78"/><circle cx="40" cy="160" r="1.1" fill="#7b2fff"/>
  </g>
</svg>